<?xml version="1.0" encoding="utf-8"?>
<!-- Generator: Adobe Illustrator 27.1.1, SVG Export Plug-In . SVG Version: 6.00 Build 0)  -->
<svg version="1.1" id="Layer_1" xmlns="http://www.w3.org/2000/svg" xmlns:xlink="http://www.w3.org/1999/xlink" x="0px" y="0px"
	 viewBox="0 0 612 612" style="enable-background:new 0 0 612 612;" xml:space="preserve">
<style type="text/css">
	.st0{fill:#FFFFFF;}
	.st1{fill:none;stroke:#000000;stroke-width:0.75;stroke-miterlimit:10;}
</style>
<circle class="st0" cx="306" cy="306" r="306"/>
<g>
	<path d="M373.05,290.94L502.89,83.2h-63.34l-58.27,100.08c-15.84,27.23-26.6,46.87-38.64,72.2h-1.9
		c-9.92-19.84-20.33-38.74-33.3-61.67v193.71c12.26-21.66,20.91-38.41,29.5-56.03h1.26c13.3,24.7,27.23,48.14,49.41,84.24
		l54.47,94.37h63.97L373.05,290.94z"/>
	<line class="st1" x1="307.45" y1="54.22" x2="307.45" y2="557.78"/>
	<line class="st1" x1="285.12" y1="54.22" x2="285.12" y2="557.78"/>
	<path d="M238.95,98.55v281.22c0,83.6-29.13,105.77-78.54,105.77c-18.37,0-34.84-3.8-46.24-8.23l-8.23,44.97
		c13.93,5.7,38.63,10.13,58.9,10.13c56.11,0,101.78-20.46,120.28-80.55V98.55H238.95z"/>
</g>
</svg>
