<?xml version="1.0" encoding="utf-8"?>
<!-- Generator: Adobe Illustrator 27.1.1, SVG Export Plug-In . SVG Version: 6.00 Build 0)  -->
<svg version="1.1" id="Layer_1" xmlns="http://www.w3.org/2000/svg" xmlns:xlink="http://www.w3.org/1999/xlink" x="0px" y="0px"
	 viewBox="0 0 612 612" style="enable-background:new 0 0 612 612;" xml:space="preserve">
<style type="text/css">
	.st0{fill:none;stroke:#000000;stroke-width:0.75;stroke-miterlimit:10;}
</style>
<g>
	<path d="M378.4,289.33L518.31,65.46h-68.25L387.27,173.3c-17.07,29.35-28.67,50.5-41.63,77.8h-2.05
		c-10.69-21.38-21.91-41.74-35.88-66.46v208.74c13.21-23.34,22.54-41.39,31.79-60.38h1.36c14.33,26.62,29.35,51.87,53.24,90.78
		l58.7,101.7h68.93L378.4,289.33z"/>
	<line class="st0" x1="307.71" y1="34.23" x2="307.71" y2="576.87"/>
	<line class="st0" x1="283.64" y1="34.23" x2="283.64" y2="576.87"/>
	<path d="M233.89,82v303.04c0,90.09-31.39,113.98-84.63,113.98c-19.79,0-37.54-4.09-49.83-8.87l-8.87,48.46
		c15.01,6.14,41.63,10.92,63.47,10.92c60.46,0,109.68-22.04,129.61-86.8V82H233.89z"/>
</g>
</svg>
